<svg xmlns="http://www.w3.org/2000/svg" viewBox="0 0 1000 480" width="1000" height="480" role="img" aria-labelledby="t"><title id="t">图 3-7 两级上下文压缩</title><style>svg{--fg:#1f2328;--muted:#6b7280;--line:#c8d1da;--accent:#b45309;--panel:#f7f9fb;--box:#fff}text{font-family:-apple-system,BlinkMacSystemFont,"PingFang SC","Microsoft YaHei",sans-serif}.h{fill:var(--fg);font-size:17px;font-weight:600}.pt{fill:var(--fg);font-size:15px;font-weight:600}.tx{fill:var(--fg);font-size:12.8px}.sm{fill:var(--muted);font-size:12px}.acc{fill:var(--accent);font-size:12.5px;font-weight:600}.panel{fill:var(--panel);stroke:var(--line);stroke-width:1.2}.msg{fill:var(--box);stroke:var(--line)}.slot{fill:#fff8ef;stroke:var(--accent);stroke-dasharray:5 4}.sum{fill:#fff8ef;stroke:var(--accent);stroke-width:1.4}</style><text class="h" x="500" y="36" text-anchor="middle">先清理可再生的内容，再压缩对话骨架</text><rect class="panel" x="50" y="68" width="430" height="370" rx="12"/><text class="pt" x="74" y="102">一级 · 工具结果替换</text><text class="sm" x="74" y="126">机械判断 · 零模型调用 · 近乎无损</text><rect class="msg" x="82" y="152" width="366" height="40" rx="6"/><text class="tx" x="100" y="177">用户任务（原样保留）</text><rect class="msg" x="82" y="204" width="366" height="40" rx="6"/><text class="tx" x="100" y="229">助手调用 read(login.ts)</text><rect class="slot" x="82" y="256" width="366" height="34" rx="6"/><text class="acc" x="100" y="278">[已省略 2000 行，需要时重新读取]</text><rect class="msg" x="82" y="302" width="366" height="40" rx="6"/><text class="tx" x="100" y="327">助手修改环境变量</text><rect class="slot" x="82" y="354" width="366" height="34" rx="6"/><text class="acc" x="100" y="376">[测试完整输出已省略，可重新执行]</text><text class="sm" x="265" y="416" text-anchor="middle">调用关系仍然可见：骨架不动</text><rect class="panel" x="520" y="68" width="430" height="370" rx="12"/><text class="pt" x="544" y="102">二级 · 历史整体摘要</text><text class="sm" x="544" y="126">理解内容 · 一次模型调用 · 有损</text><rect class="msg" x="552" y="152" width="366" height="40" rx="6"/><text class="tx" x="570" y="177">系统提示词（原样保留）</text><rect class="sum" x="552" y="204" width="366" height="126" rx="8"/><text class="acc" x="570" y="230">交接摘要</text><text class="tx" x="570" y="255">任务原文与全部用户约束</text><text class="tx" x="570" y="278">关键技术信息、已排除方案</text><text class="tx" x="570" y="301">当前状态、下一步、省略说明</text><rect class="msg" x="552" y="342" width="366" height="46" rx="6"/><text class="tx" x="570" y="370">最近几轮原文（保留完整调用对）</text><text class="sm" x="735" y="416" text-anchor="middle">大段历史被一份可继续工作的状态替代</text></svg>
